<svg width="16" height="18" viewBox="0 0 16 18" fill="none" xmlns="http://www.w3.org/2000/svg">
<path d="M14.0981 6.82043H9.58226C9.3881 6.82043 9.2307 6.97783 9.2307 7.17199C9.2307 7.36616 9.3881 7.52355 9.58226 7.52355H12.7112V9.03526C12.7112 9.83004 12.0645 10.4767 11.2698 10.4767H4.73072C3.93595 10.4767 3.28932 9.83004 3.28932 9.03526V7.52355H6.41822C6.61238 7.52355 6.76978 7.36616 6.76978 7.17199C6.76978 6.97783 6.61238 6.82043 6.41822 6.82043H1.90234C1.70818 6.82043 1.55078 6.97783 1.55078 7.17199C1.55078 7.36616 1.70818 7.52355 1.90234 7.52355H2.5862V9.03526C2.5862 10.0769 3.33277 10.947 4.31883 11.1397L2.91596 17.5736C2.89329 17.6775 2.91895 17.7862 2.98564 17.869C3.05237 17.9518 3.15306 18 3.25944 18H4.78476C4.95013 18 5.09311 17.8848 5.12827 17.7232L5.92863 14.045H10.0718L10.8722 17.7232C10.9073 17.8848 11.0503 18 11.2157 18H12.741C12.8474 18 12.9481 17.9519 13.0148 17.869C13.0815 17.7861 13.1072 17.6775 13.0845 17.5736L11.6816 11.1397C12.6676 10.947 13.4142 10.0769 13.4142 9.03526V7.52355H14.0981C14.2922 7.52355 14.4496 7.36616 14.4496 7.17199C14.4497 6.97783 14.2923 6.82043 14.0981 6.82043ZM4.50147 17.2969H3.6959L5.02972 11.1798H5.83251L4.50147 17.2969ZM6.08163 13.3419L6.55209 11.1798H9.44839L9.91885 13.3419H6.08163ZM11.499 17.2969L10.168 11.1798H10.9708L12.3046 17.2969H11.499Z" fill="#696969"/>
<path d="M14.9269 4.49996C14.7328 4.49996 14.5754 4.65735 14.5754 4.85152C14.5754 5.08415 14.3861 5.27339 14.1535 5.27339C13.9209 5.27339 13.7316 5.08415 13.7316 4.85152C13.7316 4.65735 13.5742 4.49996 13.3801 4.49996H12.7665C12.6185 4.05134 12.1956 3.72653 11.698 3.72653C11.4631 3.72653 11.2449 3.79899 11.0643 3.92259C10.9393 3.80148 10.7692 3.72653 10.5818 3.72653H9.7205C9.53309 3.72653 9.36307 3.80148 9.23802 3.92259C9.05742 3.79899 8.83918 3.72653 8.6043 3.72653C8.37061 3.72653 8.15338 3.79821 7.97331 3.92066C7.84802 3.79793 7.67677 3.72196 7.48795 3.72196H6.62663C6.43784 3.72196 6.26663 3.79793 6.14133 3.92059C5.9613 3.79818 5.74407 3.72653 5.51042 3.72653C5.27674 3.72653 5.05951 3.79821 4.87944 3.92063C4.75414 3.7979 4.58289 3.72192 4.39411 3.72192H3.53278C3.14993 3.72192 2.83845 4.03341 2.83845 4.41625V4.49993H1.07519C0.881027 4.49993 0.723633 4.65732 0.723633 4.85149C0.723633 5.04565 0.881027 5.20305 1.07519 5.20305H2.83841V5.27758C2.83841 5.66042 3.1499 5.97191 3.53275 5.97191H4.39407C4.58015 5.97191 4.74897 5.89794 4.87378 5.77834C5.05497 5.90318 5.27424 5.97648 5.51042 5.97648C5.74656 5.97648 5.96583 5.90318 6.14699 5.77841C6.27176 5.89794 6.44058 5.97191 6.62663 5.97191H7.48795C7.67403 5.97191 7.84285 5.89794 7.96766 5.77834C8.14885 5.90318 8.36812 5.97648 8.6043 5.97648C8.83921 5.97648 9.05742 5.90402 9.23802 5.78041C9.36307 5.90152 9.53305 5.97648 9.7205 5.97648H10.5818C10.7692 5.97648 10.9393 5.90152 11.0643 5.78041C11.2449 5.90402 11.4632 5.97648 11.698 5.97648C12.1956 5.97648 12.6185 5.65167 12.7665 5.20305H13.0848C13.2327 5.65174 13.6559 5.97648 14.1535 5.97648C14.7738 5.97648 15.2785 5.47181 15.2785 4.85149C15.2785 4.65735 15.1211 4.49996 14.9269 4.49996ZM4.38532 5.26879H3.54157V4.42504H4.38532V5.26879ZM5.51042 5.27339C5.27779 5.27339 5.08855 5.08415 5.08855 4.85152C5.08855 4.61889 5.27779 4.42965 5.51042 4.42965C5.74305 4.42965 5.93229 4.61889 5.93229 4.85152C5.93229 5.08415 5.74305 5.27339 5.51042 5.27339ZM7.47916 5.26879H6.63541V4.42504H7.47916V5.26879ZM8.6043 5.27339C8.37167 5.27339 8.18242 5.08415 8.18242 4.85152C8.18242 4.61889 8.37167 4.42965 8.6043 4.42965C8.83692 4.42965 9.02617 4.61889 9.02617 4.85152C9.02617 5.08415 8.83692 5.27339 8.6043 5.27339ZM10.573 5.27339H9.72929V4.42965H10.573V5.27339ZM11.698 5.27339C11.4654 5.27339 11.2762 5.08415 11.2762 4.85152C11.2762 4.61889 11.4654 4.42965 11.698 4.42965C11.9307 4.42965 12.1199 4.61889 12.1199 4.85152C12.1199 5.08415 11.9307 5.27339 11.698 5.27339Z" fill="#696969"/>
<path d="M10.7017 2.37109C10.6132 2.54395 10.6816 2.75573 10.8545 2.84422C10.9057 2.87045 10.9604 2.88289 11.0143 2.88289C11.1421 2.88289 11.2654 2.813 11.3276 2.69143C11.5535 2.24994 11.5535 1.72277 11.3276 1.28128C11.2043 1.04036 11.2043 0.752672 11.3276 0.511746C11.416 0.338883 11.3476 0.127102 11.1748 0.0386136C11.002 -0.0498395 10.7901 0.0185746 10.7017 0.191403C10.4757 0.632895 10.4757 1.16006 10.7017 1.60155C10.8249 1.84248 10.8249 2.13016 10.7017 2.37109Z" fill="#696969"/>
<path d="M7.69339 2.37109C7.60494 2.54395 7.67335 2.75573 7.84618 2.84422C7.89747 2.87045 7.95214 2.88289 8.00604 2.88289C8.13383 2.88289 8.25709 2.813 8.31928 2.69143C8.54524 2.24994 8.54524 1.72277 8.31928 1.28128C8.19599 1.04036 8.19599 0.752672 8.31928 0.511746C8.40774 0.338883 8.33932 0.127102 8.16649 0.0386136C7.99373 -0.0498395 7.78184 0.0185746 7.69339 0.191403C7.46744 0.632895 7.46744 1.16006 7.69339 1.60155C7.81668 1.84248 7.81668 2.13016 7.69339 2.37109Z" fill="#696969"/>
<path d="M4.68268 2.37109C4.59423 2.54395 4.66264 2.75573 4.83547 2.84422C4.88676 2.87045 4.94143 2.88289 4.99532 2.88289C5.12312 2.88289 5.24637 2.813 5.30856 2.69143C5.53451 2.24994 5.53451 1.72277 5.30856 1.28128C5.18527 1.04036 5.18527 0.752672 5.30856 0.511746C5.39702 0.338883 5.3286 0.127102 5.15578 0.0386136C4.98298 -0.0498395 4.77113 0.0185746 4.68264 0.191403C4.4567 0.632895 4.4567 1.16006 4.68264 1.60155C4.80597 1.84248 4.80597 2.13016 4.68268 2.37109Z" fill="#696969"/>
<path d="M8.24953 7.42055C8.31492 7.35516 8.35254 7.26446 8.35254 7.172C8.35254 7.07954 8.31492 6.98883 8.24953 6.92344C8.18414 6.85805 8.09344 6.82043 8.00098 6.82043C7.90852 6.82043 7.81781 6.85805 7.75242 6.92344C7.68703 6.98883 7.64941 7.07954 7.64941 7.172C7.64941 7.26446 7.68703 7.35516 7.75242 7.42055C7.81781 7.48594 7.90852 7.52356 8.00098 7.52356C8.09344 7.52356 8.18414 7.48591 8.24953 7.42055Z" fill="#696969"/>
</svg>
