<svg width="16" height="14" viewBox="0 0 16 14" fill="none" xmlns="http://www.w3.org/2000/svg">
<path d="M0.596492 10.4323C6.67702 8.70383 8.89952 12.1968 15.649 10.435C15.8995 10.3696 16.0495 10.1135 15.9841 9.86304C15.9188 9.61258 15.6627 9.46254 15.4122 9.52789C14.0871 9.87379 12.9386 10.0018 11.8985 10.0032L10.5395 7.81289C11.3428 8.81104 12.8358 8.86858 13.7105 7.93839C14.0951 7.52945 14.2974 6.9952 14.2802 6.43408C14.2226 4.55301 11.9178 3.70898 10.6486 5.05864C10.0371 5.70883 9.92621 6.63329 10.2705 7.37923L8.41096 4.38223L11.1704 3.58595C12.0274 3.33867 12.4324 2.35773 11.997 1.57751C11.6808 1.01101 11.0246 0.740951 10.4014 0.920826L6.22377 2.12636C5.14062 2.43895 4.65555 3.69808 5.2503 4.6567L6.51299 6.69179C5.60277 7.25679 2.7158 9.04704 2.68515 9.06829C1.96049 9.14489 1.18443 9.29054 0.340211 9.53054C0.0912107 9.60133 -0.0532893 9.86058 0.0174919 10.1096C0.0882419 10.3587 0.347586 10.5031 0.596492 10.4323ZM11.3315 5.70095C11.7727 5.23176 12.5093 5.21048 12.9771 5.65045C13.4458 6.09123 13.4685 6.82736 13.0276 7.29614C12.5869 7.76476 11.8507 7.78748 11.382 7.34664C10.9132 6.90583 10.8906 6.1697 11.3315 5.70095ZM7.55668 6.59589L6.0469 4.16248C5.78024 3.7327 5.99733 3.16748 6.48365 3.02714L10.6612 1.82161C10.8633 1.76323 11.0758 1.85083 11.1783 2.03439C11.3197 2.28773 11.1876 2.60523 10.9105 2.6852L7.55637 3.65311C7.25783 3.73926 7.12449 4.08708 7.28802 4.35061L10.7657 9.95567C8.57861 9.77208 6.80152 9.11245 4.55133 9.01226L7.40552 7.24129C7.62549 7.10483 7.69318 6.81586 7.55668 6.59589Z" fill="#696969"/>
<path d="M15.4123 11.7153C8.95468 13.401 6.68871 9.91328 0.340211 11.718C0.0912107 11.7888 -0.0532893 12.048 0.0174919 12.2971C0.0882732 12.5461 0.347617 12.6906 0.596554 12.6198C6.67709 10.8913 8.89959 14.3843 15.6491 12.6224C15.8996 12.5571 16.0496 12.301 15.9842 12.0505C15.9188 11.8 15.6627 11.65 15.4123 11.7153Z" fill="#696969"/>
</svg>
