<svg width="10" height="16" viewBox="0 0 10 16" fill="none" xmlns="http://www.w3.org/2000/svg">
<path d="M2.79102 12.4059C2.66155 12.4059 2.55664 12.5109 2.55664 12.6403V13.6505C2.55664 13.7799 2.66155 13.8849 2.79102 13.8849H7.21045C7.33992 13.8849 7.44483 13.7799 7.44483 13.6505V12.6403C7.44483 12.5109 7.33992 12.4059 7.21045 12.4059H2.79102ZM6.97608 13.4161H3.02539V12.8747H6.97608V13.4161Z" fill="#696969"/>
<path d="M6.49804 3.54125V2.75978C6.49804 2.63034 6.39314 2.52541 6.26367 2.52541H5.74045V1.47891H7.02129C7.42904 1.47891 7.76076 1.14719 7.76076 0.739438C7.76076 0.331688 7.42904 0 7.02129 0H3.0088C2.81123 0 2.62551 0.0769063 2.48592 0.216594L1.67108 1.03147C1.5298 1.17272 1.45205 1.3605 1.45205 1.56022C1.45205 1.75994 1.5298 1.94775 1.67105 2.08897C1.8123 2.23019 2.00005 2.30797 2.1998 2.30797C2.39955 2.30797 2.5873 2.23019 2.72858 2.08897L3.33861 1.47891H4.26151V2.52541H3.73829C3.60883 2.52541 3.50392 2.63034 3.50392 2.75978V3.54125C2.09692 3.62741 0.978516 4.79887 0.978516 6.22719V12.5956C0.978516 12.7251 1.08342 12.83 1.21289 12.83C1.34236 12.83 1.44727 12.7251 1.44727 12.5956V6.22719C1.44727 5.00153 2.44442 4.00437 3.67008 4.00437H6.33195C7.5576 4.00437 8.55476 5.00153 8.55476 6.22719V7.13906C8.55476 7.2685 8.65967 7.37344 8.78913 7.37344C8.9186 7.37344 9.02351 7.2685 9.02351 7.13906V6.22719C9.02348 4.79891 7.90504 3.62744 6.49804 3.54125ZM3.24151 1.01016C3.17936 1.01016 3.11976 1.03484 3.07576 1.07881L2.39711 1.7575C2.34439 1.81022 2.2743 1.83922 2.1998 1.83922C2.1253 1.83922 2.0552 1.81019 2.00251 1.75747C1.94983 1.70478 1.92083 1.63472 1.92083 1.56019C1.92083 1.48566 1.94986 1.41559 2.00255 1.36291L2.81742 0.548C2.86855 0.496906 2.93651 0.46875 3.00883 0.46875H7.02132C7.1706 0.46875 7.29204 0.590187 7.29204 0.739469C7.29204 0.88875 7.1706 1.01019 7.02132 1.01019H3.24151V1.01016ZM4.73026 1.47891H5.2717V2.52541H4.73026V1.47891ZM6.02929 2.99416V3.53562H3.97267V2.99416H6.02929Z" fill="#696969"/>
<path d="M8.78913 8.00153C8.65967 8.00153 8.55476 8.10646 8.55476 8.2359V14.8187C8.55476 15.2116 8.23501 15.5312 7.84195 15.5312H2.16008C1.76705 15.5312 1.44727 15.2116 1.44727 14.8187V13.6925C1.44727 13.563 1.34236 13.4581 1.21289 13.4581C1.08342 13.4581 0.978516 13.563 0.978516 13.6925V14.8187C0.978516 15.4701 1.50855 16 2.16008 16H7.84195C8.49348 16 9.02351 15.4701 9.02351 14.8187V8.2359C9.02351 8.10646 8.91857 8.00153 8.78913 8.00153Z" fill="#696969"/>
<path d="M5.00118 6.4397C3.54905 6.4397 2.36768 7.6211 2.36768 9.0732C2.36768 10.5253 3.54908 11.7067 5.00118 11.7067C6.45327 11.7067 7.63468 10.5253 7.63468 9.0732C7.63468 7.62107 6.4533 6.4397 5.00118 6.4397ZM5.00118 11.238C3.80752 11.238 2.83643 10.2669 2.83643 9.07323C2.83643 7.87957 3.80752 6.90848 5.00118 6.90848C6.19483 6.90848 7.16593 7.8796 7.16593 9.07323C7.16593 10.2669 6.19483 11.238 5.00118 11.238Z" fill="#696969"/>
<path d="M5.0165 7.51312C4.9515 7.51312 4.88941 7.54012 4.84507 7.58769C4.66588 7.7799 3.77197 8.77015 3.77197 9.38903C3.77197 10.0752 4.33025 10.6336 5.0165 10.6336C5.70275 10.6336 6.26104 10.0752 6.26104 9.38903C6.26104 8.77015 5.36716 7.7799 5.18794 7.58769C5.1436 7.54015 5.0815 7.51312 5.0165 7.51312ZM5.0165 10.1648C4.58875 10.1648 4.24072 9.81678 4.24072 9.38903C4.24072 9.11306 4.65132 8.527 5.0165 8.09984C5.38172 8.527 5.79229 9.11306 5.79229 9.38903C5.79229 9.81681 5.44425 10.1648 5.0165 10.1648Z" fill="#696969"/>
</svg>
