<svg width="16" height="16" viewBox="0 0 16 16" fill="none" xmlns="http://www.w3.org/2000/svg">
<g clip-path="url(#clip0_1987_25959)">
<path d="M7.99719 11.3219C7.23247 11.3219 6.61035 11.942 6.61035 12.7038C6.61035 13.4659 7.23247 14.0862 7.99719 14.0862C8.76216 14.0862 9.38428 13.4659 9.38428 12.7038C9.38428 11.942 8.76203 11.3219 7.99719 11.3219Z" fill="#696969"/>
<path d="M11.3809 9.43907C10.478 8.53668 9.27616 8.03949 7.99722 8.03949C6.7232 8.03949 5.52464 8.5334 4.62199 9.43011C4.25743 9.79291 4.2568 10.384 4.62048 10.7474C4.79715 10.9243 5.03237 11.0215 5.28273 11.0215C5.53196 11.0215 5.76629 10.9248 5.94271 10.7494C6.49202 10.2035 7.22165 9.90282 7.99722 9.90282C8.77569 9.90282 9.50734 10.2054 10.057 10.7546C10.2337 10.931 10.4688 11.0284 10.7189 11.0284C10.9684 11.0284 11.2026 10.9318 11.3791 10.7564C11.7442 10.3935 11.7448 9.80275 11.3809 9.43907Z" fill="#696969"/>
<path d="M15.7269 5.10666C13.6627 3.04752 10.9171 1.91382 7.99658 1.91382C5.07993 1.91382 2.33718 3.04487 0.273581 5.09912C-0.0909834 5.46192 -0.0912358 6.053 0.273077 6.41643C0.449617 6.59246 0.684458 6.68925 0.934316 6.68925C1.18405 6.68925 1.41864 6.59284 1.59518 6.41693C3.30569 4.71437 5.57902 3.77652 7.99658 3.77652C10.4177 3.77652 12.6933 4.71626 14.4042 6.42337C14.5807 6.59953 14.8159 6.6967 15.0657 6.6967C15.3153 6.6967 15.5498 6.59978 15.7263 6.42413C16.091 6.06104 16.0913 5.46975 15.7269 5.10666Z" fill="#696969"/>
<path d="M13.4993 7.32722C12.03 5.86126 10.076 5.05402 7.99743 5.05402C5.92261 5.05402 3.97157 5.85873 2.50347 7.31952C2.32668 7.4953 2.22938 7.72913 2.229 7.97811C2.229 8.22683 2.32592 8.46091 2.50246 8.63695C2.679 8.81311 2.91397 8.91028 3.16382 8.91028C3.4133 8.91028 3.64789 8.81336 3.82469 8.63796C4.93996 7.52836 6.42194 6.9171 7.99743 6.9171C9.5762 6.9171 11.0602 7.53051 12.1762 8.64389C12.353 8.82031 12.5879 8.91747 12.8379 8.91747C13.0875 8.91747 13.3222 8.82056 13.4985 8.6449C13.675 8.46912 13.7726 8.23528 13.7727 7.98631C13.7729 7.73734 13.6758 7.5035 13.4993 7.32722Z" fill="#696969"/>
</g>
<defs>
<clipPath id="clip0_1987_25959">
<rect width="16" height="16" fill="white"/>
</clipPath>
</defs>
</svg>
